<svg xmlns="http://www.w3.org/2000/svg" viewBox="0 0 4674 999"><path d="M1528 0c-6 0-11 5-11 11v434c0 6 5 11 11 11h64c6 0 11-5 11-11V281c0-4 2-6 5-6h65c29 0 35 19 35 35v135c0 6 5 11 11 11h64c6 0 11-5 11-11V289c0-15-4-27-13-37-8-9-21-16-41-18-8 0-10-10-3-14 19-8 33-20 42-35 30-49 14-114-22-148-31-30-74-37-106-37zm340 0c-6 0-11 5-11 11v434c0 6 5 11 11 11h255c6 0 11-5 11-11v-60c0-6-5-11-11-11h-175c-3 0-5-2-5-5v-95c0-3 2-5 5-5h160c6 0 11-5 11-11v-61c0-6-5-11-11-11h-160c-3 0-5-2-5-5V88c0-3 2-6 5-6h175c6 0 11-5 11-11V11c0-6-5-11-11-11zm340 0c-6 0-11 5-11 11v434c0 6 5 11 11 11h255c6 0 11-5 11-11v-60c0-6-5-11-11-11h-175c-3 0-5-2-5-5v-95c0-3 2-5 5-5h160c6 0 11-5 11-11v-61c0-6-5-11-11-11h-160c-3 0-5-2-5-5V88c0-3 2-6 5-6h175c6 0 11-5 11-11V11c0-6-5-11-11-11zm349 0c-6 0-10 4-10 9v438c0 5 4 9 10 9h67c5 0 9-4 9-9V54l81 397c1 3 4 5 7 5h149c5 0 9-4 9-9V9c0-5-4-9-9-9h-68c-5 0-9 4-9 9v407L2709 5c0-3-3-5-6-5zm1507 0c-7 0-11 5-11 11v434c0 6 4 11 11 11h99c57 0 98-13 126-39 27-26 41-67 41-122V162c0-55-14-96-41-123-28-26-69-39-126-39zm343 0c-6 0-11 5-11 11v434c0 6 5 11 11 11h256c6 0 11-5 11-11v-60c0-6-5-11-11-11h-175c-3 0-6-2-6-5v-95c0-3 3-5 6-5h159c6 0 11-5 11-11v-61c0-6-5-11-11-11h-159c-3 0-6-2-6-5V88c0-3 3-6 6-6h175c6 0 11-5 11-11V11c0-6-5-11-11-11zm-911 0c-69 0-139 46-139 139v185c0 173 278 177 278 3v-32c0-6-5-11-11-11h-64c-6 0-11 5-11 11v32c0 64-106 62-106-2V139c0-75 106-75 106 0v41c0 6 5 11 11 11h64c6 0 11-5 11-11v-41c0-92-69-139-139-139zM1315 1c-69 0-138 46-138 138v217c0 108 148 138 191 41v48c0 6 5 11 11 11h64c6 0 11-5 11-11V248c0-6-5-11-11-11h-117c-6 0-11 5-11 11v59c0 6 5 11 11 11h36c3 0 6 3 6 6-8 64-105 59-105-6V139c0-75 105-76 105 0v32c0 6 5 11 11 11h64c6 0 11-5 11-11v-32c0-92-69-138-139-138zm2529 0c-69 0-139 46-139 138v179c0 183 278 183 278 0V139c0-92-70-138-139-138zM1630 82c22-1 45 1 62 17 11 11 29 53 0 79-24 20-56 14-84 15-3 0-5-3-5-6V88c0-3 2-6 5-6h22zm2214 0c26 0 53 19 53 57v179c0 73-106 73-106 0V139c0-38 27-57 53-57zm300 0h19c30 0 51 7 63 20 12 14 18 34 18 60v125c0 30-6 52-18 66s-33 21-63 21h-19c-3 0-5-2-5-5V88c0-3 2-6 5-6zM1206 541c-6 0-11 5-11 11v60c0 7 5 11 11 11h79c3 0 6 3 6 6v281c0 3-3 5-6 5h-79c-6 0-11 5-11 11v61c0 6 5 11 11 11h255c6 0 11-5 11-11v-60c0-7-5-11-11-11h-79c-3 0-5-3-5-6V629c0-3 2-6 5-6h79c6 0 11-4 11-11v-60c0-6-5-11-11-11zm726 0c-6 0-11 5-11 11v60c0 7 5 11 11 11h79c3 0 6 3 6 6v281c0 3-3 5-6 5h-79c-6 0-11 5-11 11v61c0 6 5 11 11 11h255c6 0 11-5 11-11v-60c0-7-5-11-11-11h-79c-3 0-5-3-5-6V629c0-3 2-6 5-6h79c6 0 11-4 11-11v-60c0-6-5-11-11-11zm340 0c-6 0-11 5-11 11v60c0 7 5 11 11 11h79c3 0 6 3 6 6v358c0 6 5 11 11 11h64c6 0 11-5 11-11V629c0-3 2-6 5-6h79c7 0 11-4 11-11v-60c0-6-4-11-11-11zm340 0c-6 0-11 5-11 11v60c0 7 5 11 11 11h79c3 0 6 3 6 6v281c0 3-3 5-6 5h-79c-6 0-11 5-11 11v61c0 6 5 11 11 11h256c6 0 11-5 11-11v-60c0-7-5-11-11-11h-80c-3 0-5-3-5-6V629c0-3 2-6 5-6h80c6 0 11-4 11-11v-60c0-6-5-11-11-11zm692 0c-6 0-11 5-11 11v60c0 7 5 11 11 11h79c3 0 6 3 6 6v358c0 6 5 11 11 11h64c6 0 11-5 11-11V629c0-3 2-6 5-6h80c6 0 11-4 11-11v-60c0-6-5-11-11-11zm343 0c-6 0-11 5-11 11v60c0 7 5 11 11 11h80c3 0 5 3 5 6v281c0 3-2 5-5 5h-80c-6 0-11 5-11 11v61c0 6 5 11 11 11h256c6 0 11-5 11-11v-60c0-7-5-11-11-11h-79c-3 0-6-3-6-6V629c0-3 3-6 6-6h79c6 0 11-4 11-11v-60c0-6-5-11-11-11zm-2107 2c-5 0-9 4-9 9v438c0 5 4 9 9 9h68c5 0 9-4 9-9V594l81 400c1 3 4 5 7 5h149c5 0 9-4 9-9V552c0-5-4-9-9-9h-68c-5 0-9 4-9 9v404l-84-408c0-3-3-5-6-5zm1490-2c-5 0-10 4-11 9l-105 439c-1 4 3 9 7 9h75c4 0 7-3 7-6l20-89c1-2 3-3 5-3h148c2 0 4 1 4 3l20 89c1 3 4 6 7 6h75c5 0 8-5 7-9l-104-439c-2-5-6-9-12-9zm946 0c-5 0-8 5-7 9l98 439c2 5 6 9 12 9h143c5 0 10-4 11-9l99-439c1-4-2-9-7-9h-72c-4 0-8 3-9 8l-87 402c0 2-2 4-5 4h-4c-2 0-4-2-4-4l-87-402c-1-5-5-8-9-8zm431 0c-6 0-11 5-11 11v435c0 6 5 11 11 11h256c6 0 11-5 11-11v-60c0-7-5-11-11-11h-175c-3 0-6-3-6-6v-95c0-3 3-5 6-5h159c6 0 11-5 11-11v-60c0-6-5-11-11-11h-159c-3 0-6-3-6-6v-93c0-3 3-6 6-6h175c6 0 11-4 11-11v-60c0-6-5-11-11-11zm-1307 43h4c2 0 4 2 4 4l51 224c1 3-1 6-4 6h-107c-3 0-5-3-4-6l51-224c1-2 2-4 5-4z"/><path fill="#30d564" d="M85 442c27-39 80-76 151-102-8 41-13 84-14 130h-20c44 16 87 37 126 64h129v123l22 31c13-20 27-39 42-57v-97h110c39-27 81-49 126-65-2-45-7-88-15-129 71 26 122 62 150 100a550 550 0 0 1 83-1 489 489 0 0 0-971-1h13c23 0 46 1 68 4m799-99c-42-31-97-58-159-77-19-62-46-117-77-159a428 428 0 0 1 236 236M521 82c49 19 97 78 130 167-41-8-84-13-130-15zm0 216c55 2 106 9 152 20 11 46 18 97 20 152H521zm-64 172H286c2-55 9-106 20-152 46-11 97-18 151-20zm0-388v152c-45 2-89 7-130 15 33-89 82-148 130-167zm-126 25c-32 42-58 97-77 159-63 19-117 46-159 77a428 428 0 0 1 236-236m58 873a552 552 0 0 1 54-229 476 476 0 0 0-17-28A489 489 0 0 0 17 502H0c0 236 167 432 389 478zm553-478a487 487 0 0 0-424 244l-3 5-6 11a484 484 0 0 0-40 102l-2 9a498 498 0 0 0-15 116l37 2 17-1h10a487 487 0 0 0 463-487l-37-1z"/></svg>
