<svg xmlns="http://www.w3.org/2000/svg" viewBox="0 0 999 526"><defs><radialGradient id="a" cx="0" cy="0" r="1" gradientTransform="matrix(656 0 0 656 300 92)" gradientUnits="userSpaceOnUse"><stop offset="0" stop-color="#aeb2d5"/><stop offset=".3" stop-color="#aeb2d5"/><stop offset=".8" stop-color="#484c89"/><stop offset="1" stop-color="#484c89"/></radialGradient></defs><path fill="url(#a)" d="M0 263c0 145 224 263 499 263 276 0 500-118 500-263S775 0 499 0C224 0 0 118 0 263"/><path fill="#777bb3" d="M499 506c266 0 480-109 480-243 0-135-214-243-480-243S20 128 20 263c0 134 214 243 479 243"/><path stroke="#fff" stroke-width="11" d="M719 293c22 0 38-4 48-12 11-8 18-21 21-40 4-18 2-30-4-37s-19-10-39-10h-35l-19 99zM605 415a5 5 0 0 1-5-6l51-263c1-3 3-5 5-5h111c34 0 60 10 76 28 17 19 22 45 15 78a124 124 0 0 1-37 67c-12 11-26 19-41 24-14 5-33 7-55 7h-44l-13 66c-1 2-3 4-5 4zm-63-70a5 5 0 0 1-5-6l22-117c3-11 2-19-1-22-2-2-8-6-25-6h-41l-28 147c-1 2-3 4-5 4h-57a5 5 0 0 1-6-6l51-263c1-3 3-5 6-5h57a5 5 0 0 1 5 7l-12 63h44c33 0 56 6 69 18 14 13 18 33 13 59l-24 123c0 2-2 4-5 4zm-271-52c22 0 38-4 49-12 10-8 17-21 21-40 3-18 2-30-4-37s-20-10-40-10h-35l-19 99zM157 415a5 5 0 0 1-5-6l51-263c1-3 3-5 6-5h110c35 0 60 10 77 28 16 19 21 45 15 78a124 124 0 0 1-38 67c-12 11-26 19-40 24-15 5-33 7-55 7h-45l-13 66c0 2-3 4-5 4z"/></svg>
