<svg xmlns="http://www.w3.org/2000/svg" viewBox="0 0 989 999"><defs><linearGradient id="b" x1="151" x2="112" y1="192.4" y2="137.3" gradientTransform="matrix(5 0 0 5 -133 -104)" gradientUnits="userSpaceOnUse"><stop offset="0" stop-color="#ffd43b"/><stop offset="1" stop-color="#ffe873"/></linearGradient><linearGradient id="a" x1="26.6" x2="135.7" y1="20.6" y2="114.4" gradientTransform="matrix(5 0 0 5 -133 -104)" gradientUnits="userSpaceOnUse"><stop offset="0" stop-color="#5a9fd4"/><stop offset="1" stop-color="#306998"/></linearGradient></defs><path fill="url(#a)" d="M488 0c-41 0-79 4-114 10-101 18-119 55-119 124v91h238v30H166c-70 0-130 41-149 121-22 90-23 147 0 242 17 70 57 121 126 121h82V630c0-79 68-148 149-148h238c67 0 120-55 120-121V134c0-65-55-113-120-124-41-7-83-10-124-10zM359 73c25 0 45 21 45 46s-20 45-45 45c-24 0-44-20-44-45s20-46 44-46z"/><path fill="url(#b)" d="M761 255v106c0 82-69 151-149 151H374c-65 0-119 56-119 121v227c0 64 56 102 119 121 76 22 148 26 238 0 60-18 120-53 120-121v-91H494v-30h357c69 0 95-49 119-121 25-75 24-147 0-242-17-69-50-121-119-121h-90zM627 830c25 0 45 20 45 45s-20 45-45 45c-24 0-44-20-44-45s20-45 44-45z"/></svg>
