<svg version="1.1" viewBox="0 0 900 999" xmlns="http://www.w3.org/2000/svg"><defs><linearGradient id="a" x1="46.772999" x2="69.906998" y1="86.461998" y2="126.732" gradientTransform="matrix(18.748841,0,0,18.748841,-788.5939,-1402.6844)" gradientUnits="userSpaceOnUse"><stop stop-color="#927BE5" offset="0"/><stop stop-color="#512BD4" offset="1"/></linearGradient></defs><path d="m-2.0004e-6 313.99198v370.98984c0 45.89541 24.482386 88.34391 64.256131 111.27349l321.278521 185.51838a128.45467 128.45467 0 0 0 128.51226 0l321.27639-185.51838a128.48453 128.48453 0 0 0 64.254-111.27563v-370.98557c0-45.91247-24.48025-88.35458-64.254-111.29268l-321.27852-185.471458a128.42694 128.42694 0 0 0-128.51013 0l-321.278521 185.471458a128.5016 128.5016 0 0 0-64.256131 111.29268z" fill="url(#a)" stroke-width="2.13298"/><path d="m224.90443 435.28132v128.52389a32.079412 32.079412 0 0 0 32.13566 32.13566 32.11691 32.11691 0 0 0 32.13566-32.13566 32.126285 32.126285 0 1 1 64.25257 0 96.38823 96.38823 0 1 1-192.77646 0v-128.50514a96.38823 96.38823 0 1 1 192.77646 0 32.126285 32.126285 0 1 1-64.25257 0 32.126285 32.126285 0 1 0-64.25257 0zm514.05805 128.52389a32.098161 32.098161 0 0 1-32.13566 32.13566h-32.13566v32.11691c0 8.53076-3.3748 16.70529-9.41196 22.72369a32.060663 32.060663 0 0 1-45.42864 0 32.229404 32.229404 0 0 1-9.41196-22.72369v-32.11691h-64.25257v32.11691a32.060663 32.060663 0 0 1-32.13566 32.13565 32.060663 32.060663 0 0 1-32.11691-32.13565v-32.11691h-32.15441a32.126285 32.126285 0 1 1 0-64.25257h32.13566v-64.25257h-32.13566a32.126285 32.126285 0 1 1 0-64.25257h32.13566v-32.13566a32.126285 32.126285 0 1 1 64.25257 0v32.11691h64.25257v-32.11691a32.126285 32.126285 0 1 1 64.25257 0v32.11691h32.13565c8.51202 0 16.68655 3.37481 22.70495 9.41196a32.060663 32.060663 0 0 1 0 45.42865 32.098161 32.098161 0 0 1-22.70495 9.43071h-32.13565v64.25257h32.13565a32.210655 32.210655 0 0 1 32.13566 32.11691zm-128.52388-96.36948h-64.25257v64.25257h64.25257z" fill="#fff" stroke-width="21.3298"/></svg>
