<svg xmlns="http://www.w3.org/2000/svg" xml:space="preserve" overflow="visible" viewBox="0 0 737 999">
	<path fill="#ea2d2e" d="M468 0s104 104-98 263c-162 129-37 202 0 285-95-85-164-161-118-231C321 215 510 165 468 0zm-53 478c48 55-13 105-13 105s123-63 66-142c-52-74-92-111 125-237 0 0-341 85-178 274z" />
	<path fill="#0074bd" d="M274 996c180 11 456-7 463-92 0 0-13 33-149 58-153 29-343 26-455 7 0 0 23 19 141 27zm307-264c188-97 101-191 41-178l-22 5s6-8 16-12c120-42 212 124-38 190l3-5zM256 550s-182 43-65 59c50 6 149 5 241-3 75-6 150-20 150-20s-26 12-46 25C352 659-4 637 98 587c87-42 158-37 158-37zm417 303s29 24-31 42c-112 34-469 44-569 1-35-15 32-37 53-41 22-5 34-4 34-4-40-28-256 55-110 78 399 65 727-29 623-76zM213 663s-42 32 23 39c85 8 151 9 267-13 0 0 16 16 41 25-236 69-500 5-331-51zm24 110s-38 22 27 29c80 9 120 8 207-8 0 0 23 14 55 26-195 84-442-5-289-47z" />
</svg>