<svg xmlns="http://www.w3.org/2000/svg" viewBox="0 0 985 985"><path fill="#30d564" d="M88 433c27-39 80-76 151-103-8 42-13 85-14 131h-20c45 16 87 37 126 64h129v123l22 31c13-20 27-39 42-57v-98h110c39-26 81-48 126-64-1-45-6-88-14-130 70 27 122 63 149 101a550 550 0 0 1 83-1 490 490 0 0 0-971-1h13c23 0 46 1 68 4m799-99c-42-32-96-58-159-77-19-63-45-117-77-159a428 428 0 0 1 236 236M524 73c49 19 98 78 131 166-42-8-85-12-131-14zm0 216c55 2 106 9 152 20 11 46 18 97 20 152H524zm-63 172H289c2-55 9-106 20-152 46-11 97-18 152-20zm0-388v152c-46 2-89 6-131 14 33-88 82-147 131-166zM334 98c-32 42-58 96-77 159-63 19-117 46-159 77A428 428 0 0 1 334 98m58 873a552 552 0 0 1 54-229 476 476 0 0 0-17-28A489 489 0 0 0 20 493H3c0 236 167 432 389 479zm553-478a487 487 0 0 0-423 244l-4 5-6 11a484 484 0 0 0-40 102l-2 9a498 498 0 0 0-14 116l37 2h16l10-1a487 487 0 0 0 463-487l-37-2z"/></svg>
